<?xml version="1.0" standalone="no"?>
<svg xmlns:xlink="http://www.w3.org/1999/xlink" id="wave" style="transform:rotate(0deg); transition: 0.3s" viewBox="0 0 1440 100" version="1.1" xmlns="http://www.w3.org/2000/svg"><defs><linearGradient id="sw-gradient-0" x1="0" x2="0" y1="1" y2="0"><stop stop-color="rgba(255, 255, 255, 1)" offset="0%"/><stop stop-color="rgba(255, 255, 255, 1)" offset="100%"/></linearGradient></defs><path style="transform:translate(0, 0px); opacity:1" fill="url(#sw-gradient-0)" d="M0,60L80,51.7C160,43,320,27,480,18.3C640,10,800,10,960,16.7C1120,23,1280,37,1440,50C1600,63,1760,77,1920,76.7C2080,77,2240,63,2400,53.3C2560,43,2720,37,2880,31.7C3040,27,3200,23,3360,28.3C3520,33,3680,47,3840,56.7C4000,67,4160,73,4320,68.3C4480,63,4640,47,4800,36.7C4960,27,5120,23,5280,33.3C5440,43,5600,67,5760,68.3C5920,70,6080,50,6240,41.7C6400,33,6560,37,6720,35C6880,33,7040,27,7200,26.7C7360,27,7520,33,7680,43.3C7840,53,8000,67,8160,73.3C8320,80,8480,80,8640,78.3C8800,77,8960,73,9120,75C9280,77,9440,83,9600,73.3C9760,63,9920,37,10080,36.7C10240,37,10400,63,10560,76.7C10720,90,10880,90,11040,90C11200,90,11360,90,11440,90L11520,90L11520,100L11440,100C11360,100,11200,100,11040,100C10880,100,10720,100,10560,100C10400,100,10240,100,10080,100C9920,100,9760,100,9600,100C9440,100,9280,100,9120,100C8960,100,8800,100,8640,100C8480,100,8320,100,8160,100C8000,100,7840,100,7680,100C7520,100,7360,100,7200,100C7040,100,6880,100,6720,100C6560,100,6400,100,6240,100C6080,100,5920,100,5760,100C5600,100,5440,100,5280,100C5120,100,4960,100,4800,100C4640,100,4480,100,4320,100C4160,100,4000,100,3840,100C3680,100,3520,100,3360,100C3200,100,3040,100,2880,100C2720,100,2560,100,2400,100C2240,100,2080,100,1920,100C1760,100,1600,100,1440,100C1280,100,1120,100,960,100C800,100,640,100,480,100C320,100,160,100,80,100L0,100Z"/></svg>